<svg xmlns="http://www.w3.org/2000/svg" width="288" height="43">
    <path fill="#000000" fill-rule="evenodd" d="M210.343 41.905L197.897 8.154h77.657L288 41.905h-77.657zm18.656-18.436c.417-.612.625-1.319.625-2.123 0-1.472-.519-2.589-1.558-3.351-1.038-.762-2.562-1.144-4.571-1.144h-5.799v16.402h6.436c1.88-.015 3.328-.428 4.344-1.239 1.015-.811 1.523-2.006 1.523-3.583 0-.923-.244-1.704-.733-2.343-.489-.638-1.158-1.062-2.007-1.273.743-.285 1.323-.734 1.74-1.346zm14.656 7.069h-7.686v-4.416h6.549v-2.624h-6.549v-3.909h7.664v-2.738h-11.075v16.402h11.097v-2.715zm14.691-13.687h-13.485v2.738h5.003v13.664h3.411V19.589h5.071v-2.738zm8.505 0h-3.161l-6.163 16.402h3.628l1.137-3.38h5.981l1.148 3.38h3.627l-6.197-16.402zm-1.58 4.146l2.08 6.139h-4.138l2.058-6.139zm-41.241 9.541h-2.922v-4.427h3.126c1.57.022 2.354.785 2.354 2.287 0 .668-.225 1.192-.676 1.571-.451.379-1.079.569-1.882.569zm-.398-6.815h-2.524v-4.134h2.387c.94 0 1.628.163 2.064.49.436.326.654.862.654 1.605 0 1.329-.86 2.009-2.581 2.039zm-32.058 18.215l-2.359-6.942H176.93l-2.335 6.942h-7.451L179.803 8.25h6.492l12.729 33.688h-7.45zm-8.525-25.174l-4.227 12.61h8.501l-4.274-12.61zm-21.291 25.174h-7.006V13.872h-9.798V8.25h26.742v5.622h-9.938v28.066zm-28.985-25.454c-3.17 0-5.062-2.848-5.062-5.686 0-2.849 1.892-5.686 5.062-5.686 1.759 0 2.531.35 8.358 3.002v1.263h-4.823l-.004 2.922h4.827v1.264c-5.747 2.481-6.419 2.921-8.358 2.921zm-17.998 15.853a8.385 8.385 0 0 0-5.802-4.241l8.091-19.846h8.425v5.622h-3.186l-7.528 18.465zm-7.384 9.821c-3.302 0-5.979-2.652-5.979-5.923 0-3.272 2.677-5.923 5.979-5.923s5.979 2.651 5.979 5.923c0 3.271-2.677 5.923-5.979 5.923zM93.964 16.98l.032.002a9.568 9.568 0 0 0 6.473-2.52l5.534 13.604a8.379 8.379 0 0 0-5.875 4.065L93.964 16.98zm.032-2.368c-3.963 0-7.175-3.182-7.175-7.107 0-3.926 3.212-7.108 7.175-7.108 3.962 0 7.174 3.182 7.174 7.108 0 3.925-3.212 7.107-7.174 7.107zm-19.142 7.451c3.986 1.188 6.89 2.661 8.711 4.419 1.822 1.758 2.733 3.949 2.733 6.571 0 2.915-1.114 5.202-3.34 6.86-2.226 1.659-5.224 2.487-8.991 2.487-2.616 0-4.998-.474-7.147-1.423-2.148-.948-3.788-2.248-4.916-3.898-1.129-1.65-1.693-3.563-1.693-5.738h7.03c0 3.717 2.242 5.576 6.726 5.576 1.665 0 2.966-.336 3.9-1.007.934-.671 1.401-1.608 1.401-2.811 0-1.311-.467-2.317-1.401-3.019-.934-.702-2.616-1.442-5.045-2.221-2.429-.779-4.352-1.546-5.768-2.302-3.862-2.067-5.792-4.851-5.792-8.353 0-1.82.517-3.443 1.553-4.87 1.035-1.427 2.522-2.541 4.461-3.344 1.938-.802 4.114-1.203 6.527-1.203 2.429 0 4.593.436 6.493 1.307 1.899.872 3.375 2.102 4.426 3.691 1.051 1.589 1.576 3.394 1.576 5.414h-7.006c0-1.542-.491-2.742-1.472-3.598-.981-.856-2.359-1.284-4.134-1.284-1.712 0-3.044.359-3.993 1.076-.95.717-1.425 1.662-1.425 2.834 0 1.095.556 2.013 1.67 2.753 1.113.741 2.752 1.435 4.916 2.083zM50.646 40.364c-2.203 1.358-4.729 2.036-7.579 2.036-2.818 0-5.332-.671-7.543-2.013-2.211-1.342-3.924-3.258-5.138-5.749-1.215-2.491-1.83-5.356-1.845-8.596v-1.665c0-3.316.603-6.236 1.81-8.758 1.206-2.522 2.911-4.457 5.115-5.807 2.202-1.35 4.721-2.025 7.555-2.025 2.833 0 5.352.675 7.555 2.025 2.203 1.35 3.908 3.285 5.115 5.807 1.206 2.522 1.81 5.434 1.81 8.734v1.504c0 3.317-.592 6.224-1.775 8.723-1.184 2.499-2.877 4.427-5.08 5.784zm-.245-16.034c0-3.532-.639-6.216-1.915-8.051-1.277-1.836-3.099-2.754-5.465-2.754-2.352 0-4.165.907-5.442 2.719-1.277 1.812-1.923 4.469-1.938 7.971v1.642c0 3.44.638 6.109 1.915 8.006 1.276 1.897 3.113 2.846 5.511 2.846 2.351 0 4.158-.914 5.419-2.742 1.261-1.828 1.899-4.492 1.915-7.994V24.33zm-37.812 5.275H7.007v12.333H0V8.25h12.635c4.017 0 7.116.887 9.296 2.661 2.179 1.774 3.269 4.28 3.269 7.519 0 2.299-.502 4.215-1.506 5.75-1.004 1.535-2.527 2.757-4.566 3.667l7.357 13.767v.324h-7.521l-6.375-12.333zm4.239-14.368c-.911-.909-2.309-1.365-4.193-1.365H7.007v10.111h5.652c1.759 0 3.121-.443 4.087-1.33.965-.887 1.448-2.109 1.448-3.667 0-1.589-.456-2.838-1.366-3.749zm120.108 26.701h-7.007V19.6h7.007v22.338z"/>
</svg>
